# File produced by Open Asset Import Library (http://www.assimp.sf.net)
# (assimp v4.1.2975011174)

mtllib test.mtl

# 8 vertex positions and colors
v  0 0 0 0.486270010471344 0.4313699901103973 0.4705899953842163
v  1 1 0 0.3058800101280212 0.03922000154852867 0.1960799992084503
v  1 0 0 0.09412000328302383 0.784309983253479 0.09803999960422516
v  0 1 0 0.01569000072777271 0 0.1725499927997589
v  0 1 1 0.8784300088882446 0 0.03922000154852867
v  0 0 1 0.09412000328302383 0 0.4745100140571594
v  1 1 1 0.09019999951124191 0 0.784309983253479
v  1 0 1 0.486270010471344 0.03922000154852867 0.2196100056171417

# 0 UV coordinates

# 6 vertex normals
vn 0 0 -1
vn -1 0 0
vn 0 1 0
vn 1 0 0
vn 0 -1 0
vn 0 0 1

# Mesh 'cube' with 12 faces
g cube
usemtl DefaultMaterial
f  1//1 2//1 3//1
f  1//1 4//1 2//1
f  1//2 5//2 4//2
f  1//2 6//2 5//2
f  4//3 7//3 2//3
f  4//3 5//3 7//3
f  3//4 2//4 7//4
f  3//4 7//4 8//4
f  1//5 3//5 8//5
f  1//5 8//5 6//5
f  6//6 8//6 7//6
f  6//6 7//6 5//6

